<svg width="180" height="169" viewBox="0 0 180 169" fill="none" xmlns="http://www.w3.org/2000/svg">
<g clip-path="url(#clip0_37_29)">
<path d="M8.67803 125.832C8.67803 128.891 8.67803 131.411 8.67803 133.931C8.67803 136.27 7.96018 138.25 5.26825 138.43C2.57633 138.61 1.32009 136.81 1.14063 134.47C0.602245 128.351 -0.653988 122.052 0.422783 116.113C2.39686 104.595 2.75579 92.8972 4.55041 81.379C8.85749 54.3834 20.8814 31.5271 42.2374 14.2499C50.4926 7.59095 60.0041 2.9117 70.4129 0.572079C71.3102 0.392108 72.2075 0.0321657 73.2843 0.0321657C75.2584 -0.147805 77.053 0.392107 77.7709 2.55176C78.4887 5.07135 77.053 6.51112 74.8995 7.231C72.5665 7.95089 70.054 8.4908 67.721 9.21069C56.7738 12.9901 47.6213 19.2891 39.7249 27.5677C29.3161 38.366 21.9582 50.964 17.8306 65.5416C18.5484 64.6417 19.2663 63.7419 19.9841 62.842C20.702 61.7622 21.4198 60.5024 22.1377 59.4226C33.2643 41.7854 48.3391 29.1875 68.0799 21.9886C103.972 9.39066 143.454 24.3282 162.836 45.9248C180.603 65.9015 184.73 88.3979 174.501 113.234C169.296 126.012 161.4 136.81 150.453 145.269C122.816 166.505 91.7689 174.064 57.4917 165.605C36.4946 160.386 20.702 147.968 10.8316 128.531C10.4726 127.812 10.1137 127.272 9.7548 126.552C9.7548 126.552 9.57534 126.372 8.67803 125.832ZM83.3342 160.386C100.921 160.206 118.329 155.527 134.301 146.169C149.017 137.53 160.144 125.832 166.604 109.994C175.398 88.5779 171.988 69.141 156.734 51.6838C149.556 43.4052 140.583 37.6461 130.712 33.3268C95.5376 17.6693 56.9533 27.0278 34.3411 56.723C25.0091 68.961 18.1895 82.6388 13.1646 97.3965C12.2673 99.916 12.0878 102.796 12.4467 105.315C15.8565 126.372 26.6242 142.209 45.8266 152.108C57.1327 158.227 69.5156 160.386 83.3342 160.386Z" fill="#6E6E6E"/>
</g>
<defs>
<clipPath id="clip0_37_29">
<rect width="180" height="169" fill="white"/>
</clipPath>
</defs>
</svg>
