<svg width="157" height="93" viewBox="0 0 157 93" fill="none" xmlns="http://www.w3.org/2000/svg">
<g clip-path="url(#clip0_37_38)">
<path d="M4.2788 0.986313C4.03855 24.3119 3.98135 47.6447 4.25592 70.9703C4.33601 77.6296 4.43897 84.2817 4.57626 90.941C4.59914 91.8049 9.01523 91.2722 8.99235 90.1923C8.51184 66.9027 8.39743 43.6059 8.52328 20.3163C8.5576 13.7578 8.61481 7.19927 8.68345 0.63355C8.69489 -0.518331 4.2788 0.0648085 4.26736 0.979114L4.2788 0.986313Z" fill="#6E6E6E"/>
<path d="M2.58559 3.00928C21.9203 3.00208 41.255 3.21086 60.5897 3.44843C79.9244 3.68601 98.8701 3.94518 118.01 4.03877C128.822 4.08917 139.633 4.08197 150.445 3.98838C151.394 3.98118 152.836 3.8012 153.362 3.23246C153.888 2.66372 152.939 2.40454 152.161 2.41174C132.975 2.57732 113.777 2.46214 94.5913 2.26056C75.4053 2.05898 56.2308 1.77101 37.0563 1.59103C26.1419 1.49024 15.2275 1.42544 4.31312 1.43264C3.36355 1.43264 1.91059 1.62702 1.39576 2.18856C0.88093 2.75011 1.8305 3.00928 2.59703 3.00928H2.58559Z" fill="#6E6E6E"/>
<path d="M147.996 1.9654C147.207 25.4062 148.408 48.847 148.111 72.2877C148.031 78.9831 147.825 85.6784 147.413 92.3665C147.344 93.504 151.772 92.9424 151.829 92.0209C153.236 68.5873 152.195 45.1321 152.126 21.6914C152.103 15.0033 152.172 8.30795 152.401 1.61984C152.435 0.475156 148.008 1.0511 147.985 1.9654H147.996Z" fill="#6E6E6E"/>
<path d="M1.33856 89.134C21.1995 88.9541 41.0719 89.0548 60.9329 89.2564C80.7939 89.458 100.769 89.7604 120.687 89.9692C131.773 90.0843 142.848 90.1707 153.934 90.1923C154.883 90.1923 156.336 89.9979 156.851 89.4364C157.366 88.8749 156.417 88.6229 155.65 88.6157C135.938 88.5797 116.237 88.3349 96.5247 88.0901C76.8125 87.8454 56.5969 87.5718 36.633 87.4926C25.444 87.4494 14.2436 87.4566 3.05465 87.5646C2.10508 87.5718 0.663557 87.7518 0.137288 88.3205C-0.388982 88.8893 0.560591 89.1484 1.33856 89.1412V89.134Z" fill="#6E6E6E"/>
</g>
<defs>
<clipPath id="clip0_37_38">
<rect width="157" height="93" fill="white"/>
</clipPath>
</defs>
</svg>
