<svg width="502" height="75" viewBox="0 0 502 75" fill="none" xmlns="http://www.w3.org/2000/svg">
<g clip-path="url(#clip0_34_50)">
<path d="M501.348 36.903C498.825 36.4534 496.496 36.3114 493.955 36.1566C491.414 36.0017 489.103 35.565 486.58 35.1154C481.111 34.1903 475.871 32.9834 470.402 32.0584C460.098 30.247 449.583 28.4227 439.226 27.4955C429.733 26.3253 420.011 25.4369 410.483 24.8561C407.942 24.7013 405.401 24.5464 403.072 24.4044C393.525 24.1184 383.997 23.5377 374.451 23.2517C352.164 22.7809 329.666 22.2971 307.343 22.4158C285.444 22.5603 263.545 22.7048 241.839 23.157C231.198 23.396 220.346 23.6221 209.705 23.8611C197.969 24.625 186.269 24.7995 174.763 25.2816C150.675 26.4761 126.816 27.3887 102.728 28.5831C81.8335 29.6764 61.097 31.6669 40.3066 34.5416C26.999 36.689 13.4617 39.1183 0.136121 41.5605C15.0799 43.9505 30.2893 45.4692 45.5167 46.6932C55.4686 47.2998 65.4384 47.6116 75.1964 47.9105C81.5666 48.0029 87.9548 47.8005 94.5547 47.6111C98.5957 47.5615 102.443 47.2043 106.29 46.8471C116.755 46.0057 127.414 45.472 137.88 44.6306C150.039 43.8924 162.004 42.8466 174.163 42.1084C186.534 41.3832 199.116 40.6708 211.487 39.9456C222.57 39.4377 233.864 38.9426 245.158 38.4476C256.028 37.9268 267.093 37.7136 277.946 37.4875C289.01 37.2743 299.863 37.0483 310.927 36.8351C322.203 36.6348 333.232 37.0112 344.49 37.1056C364.889 37.1656 385.234 38.1097 405.791 39.0668C417.225 39.7637 428.483 39.8582 439.953 39.9656C451.211 40.0601 462.47 40.1546 473.534 39.9414C477.999 39.9177 482.675 39.9068 487.157 39.5883C489.293 39.4226 491.64 39.2698 493.793 38.8094C495.735 38.336 497.694 37.5679 499.618 37.3893C500.271 37.1333 500.713 36.8643 501.348 36.903Z" fill="#E8DAEF"/>
</g>
<defs>
<clipPath id="clip0_34_50">
<rect width="500" height="44" fill="white" transform="translate(2.66922) rotate(3.48785)"/>
</clipPath>
</defs>
</svg>
