<svg width="500" height="500" viewBox="0 0 500 500" fill="none" xmlns="http://www.w3.org/2000/svg">
<g clip-path="url(#clip0_37_13)">
<path d="M380.992 243.404C378.887 215.454 369.51 188.539 353.792 165.332C337.537 141.261 314.177 122.863 286.969 112.701C259.76 102.54 230.058 101.122 202.006 108.646C174.034 115.016 148.624 129.648 129.073 150.642C109.523 171.637 96.7354 198.024 92.3718 226.377C90.81 237.327 90.81 248.444 92.3718 259.394C93.9716 270.779 98.1627 281.648 104.623 291.163C116.043 307.358 133.692 311.925 142.621 324.592C146.08 329.477 147.631 335.46 146.981 341.41C146.925 342.148 147.014 342.888 147.245 343.59C147.475 344.292 147.842 344.942 148.325 345.5C148.807 346.06 149.395 346.519 150.056 346.85C150.716 347.181 151.435 347.379 152.172 347.431H157.986C172.853 351.54 187.974 354.66 203.252 356.777C209.794 357.604 216.383 358.021 222.977 358.023H242.704C257.86 358.023 272.81 355.115 288.177 353.04C289.023 353.013 289.854 352.819 290.625 352.471C291.396 352.121 292.09 351.625 292.669 351.008C293.246 350.39 293.698 349.665 293.996 348.873C294.294 348.081 294.433 347.24 294.406 346.394C294.379 345.531 294.179 344.681 293.819 343.896C293.456 343.11 292.942 342.406 292.302 341.825C291.662 341.244 290.912 340.798 290.096 340.513C289.281 340.227 288.417 340.108 287.554 340.165L242.704 337.673H158.401C158.41 330.773 156.309 324.035 152.38 318.363C143.867 306.113 126.632 300.506 115.835 284.31C111.083 276.333 108.174 267.394 107.322 258.148C106.036 248.419 106.176 238.556 107.737 228.869C112.376 204.188 124.282 181.454 141.929 163.585C159.576 145.716 182.159 133.526 206.782 128.58C230.733 122.387 256.017 123.774 279.148 132.55C302.279 141.327 322.119 157.06 335.933 177.583C349.494 197.514 357.65 220.623 359.604 244.65C360.885 256.173 359.696 267.838 356.117 278.865C352.535 289.892 346.646 300.031 338.842 308.604C335.675 311.75 332.348 314.731 328.875 317.531C319.529 324.8 310.185 330.613 301.05 338.296C297.671 341.65 295.175 345.788 293.783 350.34C291.837 357.16 290.312 364.096 289.215 371.104C289.01 375.881 287.423 380.498 284.646 384.392C271.748 395.456 255.11 401.175 238.135 400.381C212.15 399.579 186.533 394.019 162.554 383.977C164.423 380.654 162.554 370.481 162.554 364.252C162.447 362.525 161.671 360.908 160.392 359.746C159.113 358.583 157.43 357.965 155.702 358.023C154.856 358.075 154.029 358.294 153.268 358.667C152.507 359.042 151.827 359.56 151.268 360.198C150.709 360.833 150.28 361.575 150.008 362.377C149.735 363.179 149.624 364.029 149.681 364.875C149.681 373.179 148.227 383.769 149.681 388.338C149.963 389.75 150.582 391.073 151.486 392.194C152.39 393.315 153.551 394.2 154.871 394.775C181.515 407.073 210.277 414.123 239.59 415.538C260.71 416.931 281.55 410.085 297.727 396.435C301.056 393.204 303.55 389.215 304.996 384.808C307.173 378.021 308.837 371.079 309.979 364.044C309.879 360.381 310.662 356.75 312.262 353.454C321.4 345.563 330.535 340.373 339.671 332.69C343.981 329.51 348.01 325.969 351.715 322.1C361.958 311.854 369.875 299.521 374.927 285.942C379.979 272.363 382.048 257.854 380.992 243.404Z" fill="#6E6E6E"/>
<path d="M202.006 291.162C203.252 279.119 204.082 266.869 205.121 254.825C208.365 258.173 212.069 261.04 216.125 263.337C222.758 267.533 230.5 269.631 238.344 269.36C245.637 269.156 252.769 267.158 259.106 263.546V280.779C259.023 294.279 260.133 307.758 262.429 321.062C262.429 325.423 272.812 328.121 274.887 321.062C273.627 307.665 273.627 294.177 274.887 280.779C277.779 262.535 281.871 244.5 287.14 226.794C287.798 224.792 287.746 222.621 286.99 220.654C286.231 218.685 284.817 217.04 282.985 215.996C281.108 214.565 278.758 213.898 276.408 214.129C274.058 214.36 271.883 215.473 270.319 217.242C269.49 218.256 268.792 219.373 268.244 220.565L265.958 225.131L260.975 233.229C258.175 237.14 254.562 240.396 250.385 242.781C246.665 245.167 242.348 246.46 237.927 246.519C233.148 246.481 228.527 244.794 224.846 241.744C220.34 238.473 216.646 234.21 214.05 229.285L210.312 219.942C210.312 218.073 208.858 213.504 208.444 212.258C207.476 210.969 206.222 209.923 204.78 209.202C203.339 208.481 201.749 208.106 200.137 208.106C198.481 207.677 196.74 207.702 195.096 208.177C193.452 208.652 191.966 209.56 190.794 210.804C184.149 217.865 189.34 257.731 186.433 304.035C186.942 308.521 186.942 313.048 186.433 317.531C186.433 326.252 196.192 328.744 198.476 319.608C200.686 310.283 201.87 300.744 202.006 291.162Z" fill="#6E6E6E"/>
<path d="M64.5475 128.787C61.975 125.696 59.1254 122.847 56.0341 120.274L46.4827 113.214C38.8002 108.231 30.702 104.286 22.6041 99.7177C21.191 98.7252 19.4469 98.3219 17.7416 98.5934C16.0362 98.8646 14.5034 99.7892 13.468 101.171C12.4872 102.551 12.0898 104.263 12.3619 105.934C12.6339 107.605 13.5535 109.102 14.9214 110.1C21.1506 116.536 27.1723 122.973 33.6091 129.203C36.3083 131.902 39.0077 134.601 41.707 136.885C44.4064 139.169 47.3133 141.661 50.2204 143.945C57.4122 148.839 64.3431 154.107 70.9843 159.726C72.0341 160.765 73.4518 161.349 74.9295 161.349C76.407 161.349 77.8247 160.765 78.8745 159.726C79.4935 159.277 80.0141 158.706 80.4041 158.048C80.7943 157.39 81.0458 156.659 81.1429 155.901C81.2402 155.143 81.1812 154.372 80.9697 153.637C80.7581 152.902 80.3985 152.219 79.9129 151.628C75.6839 143.45 70.5283 135.786 64.5475 128.787Z" fill="#6E6E6E"/>
<path d="M147.189 36.1798C148.225 40.0098 149.544 43.7575 151.134 47.3923C152.588 50.9221 154.041 54.4521 155.91 57.9819C160.27 66.0798 165.462 73.3473 170.03 81.6529C170.698 82.8721 171.781 83.8115 173.082 84.3008C174.384 84.79 175.818 84.7967 177.123 84.3194C178.429 83.8423 179.521 82.9129 180.2 81.7C180.88 80.4869 181.102 79.0706 180.827 77.7077C179.481 68.404 177.609 59.1838 175.221 50.0917C174.183 46.3542 172.729 42.6165 171.275 38.879C170.067 35.2531 168.61 31.7148 166.915 28.2894C161.517 19.9838 156.533 12.5087 151.757 4.41077C151.481 3.57629 151.036 2.80738 150.45 2.1514C149.865 1.4954 149.152 0.966275 148.354 0.596627C147.557 0.226979 146.692 0.02465 145.813 0.0021151C144.934 -0.0204198 144.06 0.137318 143.244 0.465602C141.684 1.11066 140.44 2.34267 139.78 3.89621C139.12 5.44973 139.096 7.20046 139.714 8.77121C142.206 18.5303 144.282 27.4587 147.189 36.1798Z" fill="#6E6E6E"/>
<path d="M302.296 90.7886C303.031 90.875 303.779 90.8144 304.492 90.61C305.206 90.4056 305.871 90.0619 306.45 89.5984C307.029 89.1346 307.512 88.5606 307.869 87.9096C308.223 87.2586 308.446 86.5431 308.525 85.8052C311.46 78.2529 314.025 70.5609 316.206 62.7571C317.246 58.189 317.66 53.4134 318.283 48.8452C318.473 41.8729 319.237 34.9281 320.567 28.0813C321.017 27.3042 321.31 26.4459 321.427 25.5559C321.546 24.6656 321.487 23.7609 321.256 22.8934C321.025 22.0256 320.625 21.2121 320.079 20.499C319.533 19.7859 318.852 19.1873 318.075 18.7374C317.298 18.2875 316.44 17.995 315.55 17.8768C314.66 17.7585 313.756 17.8167 312.887 18.0481C312.021 18.2795 311.206 18.6795 310.494 19.2253C309.781 19.7711 309.181 20.452 308.731 21.2292C304.321 27.664 300.76 34.6434 298.142 41.9931C297.119 45.1234 296.285 48.3129 295.65 51.5446C295.446 54.7944 295.446 58.0538 295.65 61.3036C295.65 69.194 297.312 76.2538 297.935 83.3136C297.717 84.0909 297.656 84.904 297.758 85.7048C297.862 86.5056 298.123 87.2777 298.531 87.975C298.937 88.6725 299.481 89.2809 300.127 89.7642C300.773 90.2475 301.51 90.5959 302.296 90.7886Z" fill="#6E6E6E"/>
<path d="M480.867 156.195C471.106 156.195 461.971 154.742 452.419 154.742H440.169C436.223 154.742 432.071 156.195 428.125 157.234C418.852 160.35 409.887 164.312 401.34 169.069C400.494 169.194 399.685 169.504 398.973 169.977C398.262 170.449 397.663 171.073 397.219 171.804C396.775 172.535 396.498 173.355 396.408 174.205C396.317 175.055 396.415 175.915 396.696 176.723C396.975 177.53 397.429 178.267 398.025 178.879C398.623 179.491 399.346 179.964 400.148 180.264C400.948 180.565 401.804 180.685 402.656 180.616C403.508 180.547 404.335 180.291 405.077 179.866C414.421 178.413 423.142 178.413 432.071 177.79L443.283 176.544L454.704 174.468C463.631 172.599 472.352 170.315 481.696 168.446C483.402 168.239 484.969 167.398 486.083 166.091C487.2 164.783 487.783 163.104 487.719 161.386C487.417 159.829 486.55 158.438 485.285 157.479C484.021 156.521 482.448 156.064 480.867 156.195Z" fill="#6E6E6E"/>
<path d="M269.073 437.548C262.16 437.981 255.225 437.981 248.31 437.548C241.665 437.548 235.021 436.51 227.546 436.094L206.782 435.056C193.078 435.056 179.581 435.056 165.254 433.602C163.769 433.292 162.22 433.573 160.94 434.387C159.66 435.202 158.749 436.485 158.402 437.963C158.091 439.448 158.372 440.996 159.187 442.277C160.002 443.558 161.285 444.469 162.762 444.815C174.402 449.446 186.421 453.058 198.684 455.613C204.033 456.577 209.448 457.131 214.879 457.273C220.271 457.69 225.685 457.69 231.075 457.273C244.473 456.179 257.746 453.887 270.735 450.421C272.427 450.117 273.935 449.167 274.942 447.773C275.948 446.379 276.375 444.65 276.133 442.946C275.877 441.313 275 439.84 273.685 438.833C272.371 437.827 270.719 437.369 269.073 437.548Z" fill="#6E6E6E"/>
<path d="M246.648 479.492C239.696 479.288 232.762 478.665 225.885 477.623C221.321 477.313 216.744 477.313 212.181 477.623C203.875 477.623 196.192 479.7 188.094 480.529C187.357 480.444 186.61 480.504 185.897 480.708C185.184 480.913 184.518 481.256 183.939 481.721C183.359 482.183 182.877 482.758 182.521 483.408C182.165 484.06 181.942 484.775 181.865 485.513C181.793 487.035 182.282 488.531 183.238 489.717C184.195 490.904 185.553 491.698 187.056 491.95C194.053 494.627 201.193 496.915 208.444 498.802C211.531 499.352 214.652 499.7 217.787 499.84C220.967 500.054 224.158 500.054 227.337 499.84C235.198 498.323 242.812 495.738 249.971 492.158C251.65 491.8 253.119 490.79 254.054 489.348C254.987 487.908 255.312 486.154 254.954 484.475C254.596 482.796 253.585 481.327 252.146 480.392C250.704 479.458 248.952 479.133 247.271 479.492H246.648Z" fill="#6E6E6E"/>
</g>
<defs>
<clipPath id="clip0_37_13">
<rect width="500" height="500" fill="white"/>
</clipPath>
</defs>
</svg>
