<svg width="540" height="540" viewBox="0 0 540 540" fill="none" xmlns="http://www.w3.org/2000/svg">
<path d="M370.57 258.911C378.361 233.324 378.361 205.97 370.57 180.383C345.17 172.524 318.014 172.524 292.614 180.383" stroke="#3B3A36" stroke-width="40" stroke-linecap="round" stroke-linejoin="round"/>
<path d="M520 520L428.252 427.532" stroke="#3B3A36" stroke-width="40" stroke-linecap="round" stroke-linejoin="round"/>
<path d="M253.163 489.983C402.358 489.983 486.287 405.396 486.287 254.992C486.287 104.627 402.358 20 253.163 20C103.929 20.0396 20 104.667 20 255.031C20 405.435 103.929 489.983 253.163 489.983Z" stroke="#3B3A36" stroke-width="40" stroke-linecap="round" stroke-linejoin="round"/>
<path d="M124.911 322.591C124.911 322.591 183.064 245.013 208.88 247.151C229.626 248.814 231.473 293.286 250.726 285.247C263.575 279.901 336.738 213.015 354.734 196.422" stroke="#3B3A36" stroke-width="40" stroke-linecap="round" stroke-linejoin="round"/>
</svg>
